<svg width="140" height="120" viewBox="0 0 140 120" fill="none" xmlns="http://www.w3.org/2000/svg">
<path opacity="0.3" d="M94.57 111.25C94.57 112.73 80.37 113.93 62.85 113.93C45.33 113.93 31.13 112.73 31.13 111.25C31.13 110.51 35.3 110.31 41 109.49C41.62 109.4 42.78 112.9 44.93 112.79C46.39 112.71 48.09 113.29 51.58 112.39C53.22 111.96 54.41 108.48 55.19 108.46C58.24 108.38 59.48 108.56 62.85 108.56C64.48 108.56 65.01 108.66 66.57 108.64C67.3 108.63 68.08 111.83 69.43 112.34C70.39 112.71 72.45 113.92 74.96 113.86C77.06 113.8 79.3 111.42 80.36 111.09C81.09 110.86 80.76 109.04 81.56 109.08C90.55 109.57 94.57 110.29 94.57 111.25Z" fill="#262626"/>
<path d="M90.03 32.93C89.96 34.15 89.88 36.6 89.58 37.82C89 40.15 87.95 42.5901 86.15 44.8601C85.66 45.4801 85.08 46.03 84.49 46.55C81.11 49.59 76.64 51.3701 71.96 51.5401C65.35 51.7801 58.92 48.7701 55.22 43.2901C53.22 40.3201 52.02 36.8101 52.02 33.0401C52.02 22.4201 60.65 13.8 71.3 13.8C74.16 13.8 76.88 14.42 79.33 15.54C84.13 17.74 87.53 21.81 89.13 26.56" stroke="#8B8B8B" stroke-miterlimit="10" stroke-linecap="round" stroke-linejoin="round"/>
<path d="M83.86 48.25C84.34 72.33 82.67 96.31 81.71 107.76C81.38 111.69 78.09 113.79 74.13 113.79C70.23 113.79 66.96 111.76 66.56 107.89L66.36 89.37" stroke="#8B8B8B" stroke-miterlimit="10" stroke-linecap="round" stroke-linejoin="round"/>
<path d="M53.89 61.4102L40.33 105.09C39.26 109.76 42.81 113.28 47.61 113.28H48.16C51.33 113.28 54.16 111.28 55.21 108.3L62.98 90.4602L67.79 88.7502" stroke="#8B8B8B" stroke-miterlimit="10" stroke-linecap="round" stroke-linejoin="round"/>
<path d="M80.66 49.55C80.86 49.61 80.7 58.0201 83.65 62.6501" stroke="#8B8B8B" stroke-miterlimit="10" stroke-linecap="round" stroke-linejoin="round"/>
<path d="M55.35 17.97L56.97 19.89" stroke="#8B8B8B" stroke-miterlimit="10" stroke-linecap="round" stroke-linejoin="round"/>
<path d="M55.2647 17.8372C56.4269 16.9206 56.6204 15.2283 55.6969 14.0574C54.7735 12.8866 53.0827 12.6805 51.9205 13.5971C50.7583 14.5138 50.5648 16.206 51.4883 17.3769C52.4118 18.5477 54.1025 18.7538 55.2647 17.8372Z" fill="#FF8853"/>
<path d="M55.2647 17.8372C56.4269 16.9206 56.6204 15.2283 55.6969 14.0574C54.7735 12.8866 53.0827 12.6805 51.9205 13.5971C50.7583 14.5138 50.5648 16.206 51.4883 17.3769C52.4118 18.5477 54.1025 18.7538 55.2647 17.8372Z" stroke="#8B8B8B" stroke-miterlimit="10" stroke-linecap="round" stroke-linejoin="round"/>
<path d="M99.4 30.6899C99.4 30.6899 107.4 54.3899 84.24 57.9599" stroke="#8B8B8B" stroke-miterlimit="10" stroke-linecap="round" stroke-linejoin="round"/>
<path d="M86.6 21.6399C84.25 22.3899 81.57 22.6099 77.45 24.0799C70.22 26.6599 67.98 30.4199 67.3 32.6799C66.97 33.7699 67.42 35.6399 67.87 36.6899C69.41 40.2699 73.67 48.3899 87.22 42.6199" stroke="#8B8B8B" stroke-miterlimit="10" stroke-linecap="round" stroke-linejoin="round"/>
<path d="M125.87 21.47L87.53 33.43L85.64 28.87L120.82 9.54004" stroke="#8B8B8B" stroke-miterlimit="10" stroke-linecap="round" stroke-linejoin="round"/>
<path d="M129.97 22.61L127.01 23.82L120.28 6.71L123.24 5.5L129.97 22.61Z" stroke="#8B8B8B" stroke-miterlimit="10" stroke-linecap="round" stroke-linejoin="round"/>
<path d="M53.89 61.6201C39.92 51.8001 39.19 43.3901 39.19 43.3901C37.49 32.9301 52.65 26.6101 52.65 26.6101" stroke="#8B8B8B" stroke-miterlimit="10" stroke-linecap="round" stroke-linejoin="round"/>
<path d="M59.0901 47.6499C59.0901 47.6499 58.2601 59.6499 54.0801 61.5299" stroke="#8B8B8B" stroke-miterlimit="10" stroke-linecap="round" stroke-linejoin="round"/>
<path d="M55.2001 43.29C55.2001 43.29 55.1801 52.79 52.3101 60.45" stroke="#8B8B8B" stroke-miterlimit="10" stroke-linecap="round" stroke-linejoin="round"/>
<path d="M52.33 37.75L49 42.5" stroke="#8B8B8B" stroke-miterlimit="10" stroke-linecap="round" stroke-linejoin="round"/>
<path opacity="0.7" d="M123.51 79.02C129.928 79.02 135.13 73.8176 135.13 67.4C135.13 60.9825 129.928 55.78 123.51 55.78C117.092 55.78 111.89 60.9825 111.89 67.4C111.89 73.8176 117.092 79.02 123.51 79.02Z" fill="url(#paint0_linear_997_101)"/>
<path d="M123.51 79.02C129.928 79.02 135.13 73.8176 135.13 67.4C135.13 60.9825 129.928 55.78 123.51 55.78C117.092 55.78 111.89 60.9825 111.89 67.4C111.89 73.8176 117.092 79.02 123.51 79.02Z" stroke="#8B8B8B" stroke-width="1.0005" stroke-miterlimit="10" stroke-linecap="round" stroke-linejoin="round"/>
<path d="M31.67 23.5201C34.9561 23.5201 37.62 20.8562 37.62 17.5701C37.62 14.284 34.9561 11.6201 31.67 11.6201C28.3839 11.6201 25.72 14.284 25.72 17.5701C25.72 20.8562 28.3839 23.5201 31.67 23.5201Z" stroke="#8B8B8B" stroke-width="0.969" stroke-miterlimit="10" stroke-linecap="round" stroke-linejoin="round"/>
<path d="M37.85 15.6101H41.05C42.37 15.6101 43.44 16.4101 43.44 17.3901C43.44 18.3701 42.37 19.1701 41.05 19.1701H23.04C21.72 19.1701 20.65 18.3701 20.65 17.3901C20.65 16.4101 21.72 15.6101 23.04 15.6101H25.7" stroke="#8B8B8B" stroke-width="0.969" stroke-miterlimit="10" stroke-linecap="round" stroke-linejoin="round"/>
<path d="M123.24 5.5C123.24 5.5 132.13 10 129.97 22.61" stroke="#8B8B8B" stroke-miterlimit="10" stroke-linecap="round" stroke-linejoin="round"/>
<path d="M30.48 71.4499L31.5 72.0199L30.48 72.5799L29.93 73.6099L29.37 72.5799L28.35 72.0199L29.37 71.4499L29.93 70.4199L30.48 71.4499Z" fill="#8B8B8B"/>
<path d="M110.48 36.4499L111.5 37.0199L110.48 37.5799L109.93 38.6099L109.37 37.5799L108.35 37.0199L109.37 36.4499L109.93 35.4199L110.48 36.4499Z" fill="#8B8B8B"/>
<path d="M133.73 95.6899L134.75 96.2499L133.73 96.8099L133.18 97.8399L132.62 96.8099L131.6 96.2499L132.62 95.6899L133.18 94.6599L133.73 95.6899Z" fill="#8B8B8B"/>
<path d="M80.48 6.44992L81.5 7.01992L80.48 7.57992L79.93 8.60992L79.37 7.57992L78.35 7.01992L79.37 6.44992L79.93 5.41992L80.48 6.44992Z" fill="#8B8B8B"/>
<path opacity="0.7" d="M33.5801 56.6899C34.8337 56.6899 35.8501 55.6691 35.8501 54.4099C35.8501 53.1507 34.8337 52.1299 33.5801 52.1299C32.3264 52.1299 31.3101 53.1507 31.3101 54.4099C31.3101 55.6691 32.3264 56.6899 33.5801 56.6899Z" fill="url(#paint1_linear_997_101)"/>
<path d="M33.5801 56.6899C34.8337 56.6899 35.8501 55.6691 35.8501 54.4099C35.8501 53.1507 34.8337 52.1299 33.5801 52.1299C32.3264 52.1299 31.3101 53.1507 31.3101 54.4099C31.3101 55.6691 32.3264 56.6899 33.5801 56.6899Z" stroke="#8B8B8B" stroke-miterlimit="10" stroke-linecap="round" stroke-linejoin="round"/>
<path d="M5 84.4999C5 84.4999 24.52 84.1999 46.04 86.2799" stroke="#8B8B8B" stroke-width="1.0005" stroke-miterlimit="10" stroke-linecap="round" stroke-linejoin="round"/>
<path d="M83.01 93.1599C99.28 97.8399 117.56 105.18 130.94 115.59" stroke="#8B8B8B" stroke-width="1.0005" stroke-miterlimit="10" stroke-linecap="round" stroke-linejoin="round"/>
<path d="M110.24 15.53L114.08 25.19" stroke="#8B8B8B" stroke-miterlimit="10" stroke-linecap="round" stroke-linejoin="round"/>
<path d="M98.75 21.71L101.31 28.95" stroke="#8B8B8B" stroke-miterlimit="10" stroke-linecap="round" stroke-linejoin="round"/>
<defs>
<linearGradient id="paint0_linear_997_101" x1="111.887" y1="67.4004" x2="135.123" y2="67.4004" gradientUnits="userSpaceOnUse">
<stop stop-color="#FF7002"/>
<stop offset="0.2957" stop-color="#FE7304"/>
<stop offset="0.4996" stop-color="#FC7C0A"/>
<stop offset="0.6759" stop-color="#F88B15"/>
<stop offset="0.8364" stop-color="#F3A125"/>
<stop offset="0.9849" stop-color="#ECBD39"/>
<stop offset="1" stop-color="#EBC03B"/>
</linearGradient>
<linearGradient id="paint1_linear_997_101" x1="31.3086" y1="54.4132" x2="35.847" y2="54.4132" gradientUnits="userSpaceOnUse">
<stop stop-color="#FF7002"/>
<stop offset="0.2957" stop-color="#FE7304"/>
<stop offset="0.4996" stop-color="#FC7C0A"/>
<stop offset="0.6759" stop-color="#F88B15"/>
<stop offset="0.8364" stop-color="#F3A125"/>
<stop offset="0.9849" stop-color="#ECBD39"/>
<stop offset="1" stop-color="#EBC03B"/>
</linearGradient>
</defs>
</svg>
